<svg width="52" height="52" viewBox="0 0 52 52" fill="none" xmlns="http://www.w3.org/2000/svg">
<path d="M50.9173 30.3359C50.9173 27.7191 49.3595 25.4642 47.1257 24.4345V23.8359C47.1257 12.1874 37.6492 2.71094 26.0007 2.71094C14.3521 2.71094 4.87565 12.1874 4.87565 23.8359V24.4345C2.64182 25.4642 1.08398 27.7197 1.08398 30.3359C1.08398 33.9201 3.99978 36.8359 7.58398 36.8359H9.75065C10.038 36.8359 10.3135 36.7218 10.5167 36.5186C10.7198 36.3155 10.834 36.0399 10.834 35.7526V24.9193C10.834 24.632 10.7198 24.3564 10.5167 24.1532C10.3135 23.9501 10.038 23.8359 9.75065 23.8359H7.58398C7.4009 23.8359 7.22107 23.8484 7.04232 23.863V23.8359C7.04232 13.3823 15.547 4.8776 26.0007 4.8776C36.4543 4.8776 44.959 13.3823 44.959 23.8359V23.863C44.7802 23.8484 44.6004 23.8359 44.4173 23.8359H42.2507C41.9633 23.8359 41.6878 23.9501 41.4846 24.1532C41.2815 24.3564 41.1673 24.632 41.1673 24.9193V35.7526C41.1673 36.0399 41.2815 36.3155 41.4846 36.5186C41.6878 36.7218 41.9633 36.8359 42.2507 36.8359H44.4173C44.6004 36.8359 44.7802 36.8235 44.959 36.8089V38.4609C44.959 42.0451 42.0432 44.9609 38.459 44.9609H30.334C30.334 43.766 29.3622 42.7943 28.1673 42.7943H22.7507C21.5557 42.7943 20.584 43.766 20.584 44.9609V47.1276C20.584 48.3225 21.5557 49.2943 22.7507 49.2943H28.1673C29.3622 49.2943 30.334 48.3225 30.334 47.1276H38.459C43.2376 47.1276 47.1257 43.2395 47.1257 38.4609V36.2374C49.3595 35.2077 50.9173 32.9527 50.9173 30.3359ZM8.66732 26.0026V34.6693H7.58398C5.19469 34.6693 3.25065 32.7252 3.25065 30.3359C3.25065 27.9466 5.19469 26.0026 7.58398 26.0026H8.66732ZM22.7507 47.1276V44.9609H28.1673L28.1679 46.0367L28.1673 46.0443L28.1679 46.0524L28.1689 47.1276H22.7507ZM44.4173 34.6693H43.334V26.0026H44.4173C46.8066 26.0026 48.7507 27.9466 48.7507 30.3359C48.7507 32.7252 46.8066 34.6693 44.4173 34.6693Z" fill="#8BC34A"/>
<path d="M25.917 15C31.935 15.0002 36.833 19.899 36.833 25.917C36.8328 31.9349 31.9349 36.8328 25.917 36.833H25.915C24.335 36.8359 22.7734 36.491 21.3418 35.8223L20.9346 35.6318L20.5225 35.8105L15.6582 37.9102C15.6444 37.9161 15.6291 37.918 15.6143 37.916C15.5994 37.914 15.585 37.9078 15.5732 37.8984C15.5615 37.889 15.5521 37.8764 15.5469 37.8623C15.5417 37.8483 15.5403 37.833 15.543 37.8184L16.6338 32.1426L16.7051 31.7715L16.5137 31.4463C15.5218 29.7654 15.0001 27.8632 15 25.917C15 19.8989 19.8989 15 25.917 15Z" stroke="#8BC34A" stroke-width="2"/>
<mask id="path-3-inside-1_2_29328" fill="white">
<path d="M20.0013 29.9609H25.418C25.7053 29.9609 25.9808 29.8468 26.184 29.6436C26.3872 29.4405 26.5013 29.1649 26.5013 28.8776C26.5013 28.5903 26.3872 28.3147 26.184 28.1116C25.9808 27.9084 25.7053 27.7943 25.418 27.7943H20.0013C19.714 27.7943 19.4384 27.9084 19.2353 28.1116C19.0321 28.3147 18.918 28.5903 18.918 28.8776C18.918 29.1649 19.0321 29.4405 19.2353 29.6436C19.4384 29.8468 19.714 29.9609 20.0013 29.9609Z"/>
<path d="M19.2353 23.7782C19.0321 23.9814 18.918 24.257 18.918 24.5443C18.918 24.8316 19.0321 25.1071 19.2353 25.3103C19.4384 25.5135 19.714 25.6276 20.0013 25.6276H30.8346C31.122 25.6276 31.3975 25.5135 31.6007 25.3103C31.8038 25.1071 31.918 24.8316 31.918 24.5443C31.918 24.257 31.8038 23.9814 31.6007 23.7782C31.3975 23.5751 31.122 23.4609 30.8346 23.4609H20.0013C19.714 23.4609 19.4384 23.5751 19.2353 23.7782Z"/>
</mask>
<path d="M20.0013 29.9609H25.418C25.7053 29.9609 25.9808 29.8468 26.184 29.6436C26.3872 29.4405 26.5013 29.1649 26.5013 28.8776C26.5013 28.5903 26.3872 28.3147 26.184 28.1116C25.9808 27.9084 25.7053 27.7943 25.418 27.7943H20.0013C19.714 27.7943 19.4384 27.9084 19.2353 28.1116C19.0321 28.3147 18.918 28.5903 18.918 28.8776C18.918 29.1649 19.0321 29.4405 19.2353 29.6436C19.4384 29.8468 19.714 29.9609 20.0013 29.9609Z" fill="#8BC34A"/>
<path d="M19.2353 23.7782C19.0321 23.9814 18.918 24.257 18.918 24.5443C18.918 24.8316 19.0321 25.1071 19.2353 25.3103C19.4384 25.5135 19.714 25.6276 20.0013 25.6276H30.8346C31.122 25.6276 31.3975 25.5135 31.6007 25.3103C31.8038 25.1071 31.918 24.8316 31.918 24.5443C31.918 24.257 31.8038 23.9814 31.6007 23.7782C31.3975 23.5751 31.122 23.4609 30.8346 23.4609H20.0013C19.714 23.4609 19.4384 23.5751 19.2353 23.7782Z" fill="#8BC34A"/>
<path d="M19.2353 29.6436L23.0065 25.8724V25.8724L19.2353 29.6436ZM19.2353 28.1116L23.0065 31.8828V31.8828L19.2353 28.1116ZM19.2353 23.7782L23.0065 27.5495L23.0065 27.5495L19.2353 23.7782ZM31.6007 23.7782L27.8294 27.5495V27.5495L31.6007 23.7782ZM31.6007 25.3103L35.3719 29.0815L35.3719 29.0815L31.6007 25.3103ZM19.2353 25.3103L15.464 29.0815L15.464 29.0815L19.2353 25.3103ZM25.418 29.9609V24.6276H20.0013V29.9609V35.2943H25.418V29.9609ZM20.0013 29.9609V24.6276C21.1284 24.6276 22.2095 25.0753 23.0065 25.8724L19.2353 29.6436L15.464 33.4149C16.6674 34.6183 18.2995 35.2943 20.0013 35.2943V29.9609ZM19.2353 29.6436L23.0065 25.8724C23.8036 26.6695 24.2513 27.7505 24.2513 28.8776H18.918H13.5846C13.5846 30.5794 14.2607 32.2115 15.464 33.4149L19.2353 29.6436ZM18.918 28.8776H24.2513C24.2513 30.0047 23.8036 31.0858 23.0065 31.8828L19.2353 28.1116L15.464 24.3403C14.2607 25.5437 13.5846 27.1758 13.5846 28.8776H18.918ZM19.2353 28.1116L23.0065 31.8828C22.2095 32.6798 21.1285 33.1276 20.0013 33.1276V27.7943V22.4609C18.2995 22.4609 16.6674 23.137 15.464 24.3403L19.2353 28.1116ZM20.0013 27.7943V33.1276H25.418V27.7943V22.4609H20.0013V27.7943ZM25.418 27.7943V33.1276C24.2908 33.1276 23.2098 32.6798 22.4128 31.8828L26.184 28.1116L29.9552 24.3403C28.7519 23.137 27.1198 22.4609 25.418 22.4609V27.7943ZM26.184 28.1116L22.4128 31.8828C21.6157 31.0858 21.168 30.0047 21.168 28.8776H26.5013H31.8346C31.8346 27.1758 31.1586 25.5437 29.9552 24.3403L26.184 28.1116ZM26.5013 28.8776H21.168C21.168 27.7505 21.6157 26.6695 22.4128 25.8724L26.184 29.6436L29.9552 33.4149C31.1586 32.2115 31.8346 30.5794 31.8346 28.8776H26.5013ZM26.184 29.6436L22.4128 25.8724C23.2098 25.0754 24.2908 24.6276 25.418 24.6276V29.9609V35.2943C27.1197 35.2943 28.7519 34.6183 29.9552 33.4149L26.184 29.6436ZM18.918 24.5443H24.2513C24.2513 25.6714 23.8036 26.7524 23.0065 27.5495L19.2353 23.7782L15.464 20.007C14.2607 21.2104 13.5846 22.8425 13.5846 24.5443H18.918ZM19.2353 23.7782L23.0065 27.5495C22.2095 28.3465 21.1285 28.7943 20.0013 28.7943V23.4609V18.1276C18.2995 18.1276 16.6674 18.8036 15.464 20.007L19.2353 23.7782ZM20.0013 23.4609V28.7943H30.8346V23.4609V18.1276H20.0013V23.4609ZM30.8346 23.4609V28.7943C29.7075 28.7943 28.6265 28.3465 27.8294 27.5495L31.6007 23.7782L35.3719 20.007C34.1685 18.8036 32.5364 18.1276 30.8346 18.1276V23.4609ZM31.6007 23.7782L27.8294 27.5495C27.0324 26.7524 26.5846 25.6714 26.5846 24.5443H31.918H37.2513C37.2513 22.8425 36.5753 21.2104 35.3719 20.007L31.6007 23.7782ZM31.918 24.5443H26.5846C26.5846 23.4171 27.0324 22.3361 27.8294 21.5391L31.6007 25.3103L35.3719 29.0815C36.5753 27.8782 37.2513 26.2461 37.2513 24.5443H31.918ZM31.6007 25.3103L27.8294 21.5391C28.6265 20.742 29.7075 20.2943 30.8346 20.2943V25.6276V30.9609C32.5364 30.9609 34.1685 30.2849 35.3719 29.0815L31.6007 25.3103ZM30.8346 25.6276V20.2943H20.0013V25.6276V30.9609H30.8346V25.6276ZM20.0013 25.6276V20.2943C21.1285 20.2943 22.2095 20.742 23.0065 21.5391L19.2353 25.3103L15.464 29.0815C16.6674 30.2849 18.2995 30.9609 20.0013 30.9609V25.6276ZM19.2353 25.3103L23.0065 21.5391C23.8036 22.3361 24.2513 23.4171 24.2513 24.5443H18.918H13.5846C13.5846 26.246 14.2607 27.8782 15.464 29.0815L19.2353 25.3103Z" fill="#8BC34A" mask="url(#path-3-inside-1_2_29328)"/>
</svg>
