<svg width="52" height="52" viewBox="0 0 52 52" fill="none" xmlns="http://www.w3.org/2000/svg">
<path d="M18.369 26.8981C18.3033 26.9822 18.2548 27.0784 18.2263 27.1813C18.1978 27.2842 18.1899 27.3916 18.2029 27.4976C18.216 27.6035 18.2498 27.7058 18.3024 27.7987C18.355 27.8916 18.4254 27.9732 18.5096 28.0388C20.6437 29.7201 23.2831 30.6314 26 30.625C32.7202 30.625 38.1875 25.1577 38.1875 18.4375C38.1875 11.7173 32.7202 6.25 26 6.25C19.2798 6.25 13.8125 11.7173 13.8125 18.4375C13.8125 20.9904 14.6031 23.4417 16.0981 25.5266C16.1603 25.6133 16.239 25.6868 16.3297 25.7431C16.4204 25.7994 16.5213 25.8372 16.6267 25.8545C16.732 25.8718 16.8397 25.8681 16.9436 25.8438C17.0475 25.8195 17.1456 25.7749 17.2323 25.7126C17.319 25.6504 17.3926 25.5716 17.4489 25.4809C17.5051 25.3902 17.543 25.2894 17.5603 25.184C17.5775 25.0787 17.5739 24.971 17.5496 24.8671C17.5252 24.7632 17.4806 24.6651 17.4184 24.5784C16.6775 23.5453 16.1297 22.3867 15.8015 21.1586L18.5697 21.4356C19.1022 21.4895 19.6022 21.7168 19.9928 22.0827C20.3835 22.4485 20.6431 22.9326 20.7317 23.4604L21.4841 27.9738C20.7836 27.6412 20.1213 27.2334 19.5089 26.7575C19.4249 26.6918 19.3287 26.6434 19.2259 26.6149C19.1231 26.5864 19.0157 26.5784 18.9098 26.5915C18.804 26.6046 18.7017 26.6383 18.6089 26.6909C18.5161 26.7436 18.4346 26.8139 18.369 26.8981ZM30.5159 27.9714L31.2682 23.4604C31.357 22.9326 31.6167 22.4486 32.0073 22.0828C32.3979 21.717 32.8979 21.4896 33.4303 21.4356L36.1944 21.1594C35.7963 22.6377 35.0825 24.0121 34.1022 25.1881C33.1219 26.3641 31.8984 27.3136 30.5159 27.9714ZM22.3348 23.1931C22.1869 22.3135 21.7542 21.5068 21.1031 20.8972C20.4521 20.2875 19.6188 19.9086 18.7314 19.8188L15.496 19.4954C15.4593 19.1439 15.4398 18.7909 15.4375 18.4375C15.4375 16.7418 15.8486 15.1436 16.562 13.7218L22.5753 12.5964C24.8515 12.1684 27.1877 12.1689 29.4637 12.5981L31.1716 12.919C31.2764 12.9389 31.3841 12.9379 31.4886 12.916C31.5931 12.8941 31.6922 12.8519 31.7803 12.7917C31.8683 12.7314 31.9437 12.6544 32.0019 12.565C32.0602 12.4756 32.1002 12.3755 32.1198 12.2706C32.1396 12.1658 32.1386 12.058 32.1167 11.9536C32.0949 11.8491 32.0526 11.75 31.9924 11.6619C31.9322 11.5738 31.8551 11.4985 31.7657 11.4403C31.6763 11.382 31.5763 11.342 31.4714 11.3224L29.7635 11.0015C27.2899 10.5346 24.7509 10.534 22.2771 10.9999L17.7613 11.8449C19.6991 9.4285 22.6696 7.875 26 7.875C31.824 7.875 36.5625 12.6135 36.5625 18.4375C36.5625 18.7942 36.5438 19.1468 36.5089 19.4954L33.2678 19.8196C32.3805 19.9096 31.5472 20.2885 30.8962 20.8981C30.2452 21.5078 29.8124 22.3143 29.6644 23.1939L28.7592 28.6222C27.8777 28.8611 26.9555 29.0008 25.9992 29.0008C25.0542 29.0008 24.1304 28.8716 23.2407 28.6303L22.3348 23.1931Z" fill="#8BC34A"/>
<path d="M42.9697 39.659C42.777 39.5626 42.6304 39.3938 42.562 39.1895L41.4789 35.9387C41.4342 35.8046 41.4253 35.6613 41.4529 35.5227L41.7625 33.9749C41.8575 33.502 41.7667 33.0107 41.5088 32.603C41.251 32.1954 40.846 31.9028 40.378 31.786L39.1251 36.1711C39.0423 36.4611 39 36.7609 39 37.064V42.0365C39.0004 42.5408 39.1181 43.0382 39.3437 43.4893L39.8125 44.4285C40.3453 45.4977 40.6234 46.6757 40.625 47.8703C40.625 48.0857 40.5394 48.2924 40.387 48.4448C40.2347 48.5972 40.028 48.6828 39.8125 48.6828C39.597 48.6828 39.3903 48.5972 39.238 48.4448C39.0856 48.2924 39 48.0857 39 47.8703C38.999 46.9277 38.7796 45.9983 38.3589 45.1549L37.8901 44.2164C37.5538 43.5437 37.375 42.7897 37.375 42.0365V37.064C37.3749 36.6108 37.4384 36.1598 37.5635 35.7242L38.8156 31.3399C38.9301 30.9339 39.1986 30.5886 39.5638 30.3776C39.9291 30.1665 40.3623 30.1063 40.7713 30.2098C41.6452 30.4268 42.4017 30.9725 42.8833 31.7333C43.3649 32.4942 43.5344 33.4115 43.3566 34.2942L43.0893 35.6308L43.2136 36.0029L44.4307 33.5686C44.5989 33.2314 44.6875 32.8544 44.6875 32.4783V28.8976C44.6875 28.6351 44.6452 28.3759 44.5624 28.1265L43.6085 25.2641C43.4097 24.6589 43.4345 24.0025 43.6782 23.414C43.9219 22.8255 44.3685 22.3438 44.9369 22.0563C45.269 21.8908 45.6322 21.7967 46.0029 21.78C46.3736 21.7634 46.7436 21.8246 47.0893 21.9596C47.4349 22.0955 47.7481 22.3023 48.0087 22.5668C48.2693 22.8314 48.4715 23.1477 48.6021 23.4953L49.9614 27.1198C50.2361 27.8535 50.375 28.6213 50.375 29.4021V32.7748C50.375 33.1307 50.3449 33.4898 50.2864 33.8433L48.75 43.0627V47.8703C48.75 48.0857 48.6644 48.2924 48.512 48.4448C48.3597 48.5972 48.153 48.6828 47.9375 48.6828C47.722 48.6828 47.5153 48.5972 47.363 48.4448C47.2106 48.2924 47.125 48.0857 47.125 47.8703V42.9953C47.1251 42.9506 47.1289 42.906 47.1364 42.862L48.6834 33.5759C48.7281 33.3111 48.75 33.0413 48.75 32.7748V29.4021C48.75 28.8172 48.6448 28.2371 48.4396 27.6894L47.0803 24.0664C46.9771 23.791 46.7691 23.5798 46.4953 23.4725C46.3619 23.4194 46.2187 23.3952 46.0753 23.4017C45.9318 23.4081 45.7914 23.445 45.6633 23.5099C45.4434 23.621 45.2707 23.8073 45.1764 24.035C45.0822 24.2626 45.0728 24.5165 45.1498 24.7506L46.1037 27.613C46.2426 28.0282 46.3125 28.4604 46.3125 28.8976V32.4783C46.3114 33.1085 46.1649 33.7299 45.8843 34.2942L43.94 38.182L44.1041 38.676C44.2455 39.1018 44.0147 39.5624 43.5898 39.7038C43.3853 39.7715 43.1623 39.7554 42.9697 39.659Z" fill="#8BC34A"/>
<path d="M9.40535 39.659C9.59799 39.5626 9.74458 39.3938 9.813 39.1895L10.8961 35.9387C10.9408 35.8046 10.9497 35.6613 10.9221 35.5227L10.6125 33.9749C10.5175 33.502 10.6083 33.0107 10.8662 32.603C11.124 32.1954 11.529 31.9028 11.997 31.786L13.2499 36.1711C13.3327 36.4611 13.375 36.7609 13.375 37.064V42.0365C13.3746 42.5408 13.2569 43.0382 13.0313 43.4893L12.5625 44.4285C12.0297 45.4977 11.7516 46.6757 11.75 47.8703C11.75 48.0857 11.8356 48.2924 11.988 48.4448C12.1403 48.5972 12.347 48.6828 12.5625 48.6828C12.778 48.6828 12.9847 48.5972 13.137 48.4448C13.2894 48.2924 13.375 48.0857 13.375 47.8703C13.376 46.9277 13.5954 45.9983 14.0161 45.1549L14.4849 44.2164C14.8212 43.5437 15 42.7897 15 42.0365V37.064C15.0001 36.6108 14.9366 36.1598 14.8115 35.7242L13.5594 31.3399C13.4449 30.9339 13.1764 30.5886 12.8112 30.3776C12.4459 30.1665 12.0127 30.1063 11.6037 30.2098C10.7298 30.4268 9.97332 30.9725 9.49172 31.7333C9.01013 32.4942 8.84057 33.4115 9.01838 34.2942L9.28569 35.6308L9.16137 36.0029L7.94425 33.5686C7.77606 33.2314 7.6875 32.8544 7.6875 32.4783V28.8976C7.6875 28.6351 7.72975 28.3759 7.81263 28.1265L8.7665 25.2641C8.96525 24.6589 8.94053 24.0025 8.6968 23.414C8.45308 22.8255 8.0065 22.3438 7.43806 22.0563C7.10595 21.8908 6.74285 21.7967 6.37215 21.78C6.00144 21.7634 5.63136 21.8246 5.28575 21.9596C4.94014 22.0955 4.62691 22.3023 4.3663 22.5668C4.10569 22.8314 3.90352 23.1477 3.77287 23.4953L2.41356 27.1198C2.13894 27.8535 2 28.6213 2 29.4021V32.7748C2 33.1307 2.03006 33.4898 2.08856 33.8433L3.625 43.0627V47.8703C3.625 48.0857 3.7106 48.2924 3.86298 48.4448C4.01535 48.5972 4.22201 48.6828 4.4375 48.6828C4.65299 48.6828 4.85965 48.5972 5.01202 48.4448C5.1644 48.2924 5.25 48.0857 5.25 47.8703V42.9953C5.24988 42.9506 5.24607 42.906 5.23862 42.862L3.69162 33.5759C3.64694 33.3111 3.625 33.0413 3.625 32.7748V29.4021C3.62505 28.8172 3.73018 28.2371 3.93538 27.6894L5.29469 24.0664C5.39788 23.791 5.60588 23.5798 5.87969 23.4725C6.01309 23.4194 6.15626 23.3952 6.29971 23.4017C6.44316 23.4081 6.58359 23.445 6.71169 23.5099C6.93159 23.621 7.10434 23.8073 7.19856 24.035C7.29279 24.2626 7.30223 24.5165 7.22519 24.7506L6.27131 27.613C6.13237 28.0282 6.0625 28.4604 6.0625 28.8976V32.4783C6.0636 33.1085 6.21013 33.7299 6.49069 34.2942L8.435 38.182L8.27087 38.676C8.1295 39.1018 8.36025 39.5624 8.78519 39.7038C8.9897 39.7715 9.2127 39.7554 9.40535 39.659Z" fill="#8BC34A"/>
<path d="M29.4477 17.4284C29.523 17.5041 29.6125 17.5642 29.7111 17.6052C29.8097 17.6462 29.9154 17.6673 30.0221 17.6673C30.1289 17.6673 30.2346 17.6462 30.3332 17.6052C30.4318 17.5642 30.5213 17.5041 30.5966 17.4284C30.6721 17.353 30.732 17.2635 30.7729 17.1649C30.8138 17.0664 30.8348 16.9607 30.8348 16.854C30.8348 16.7473 30.8138 16.6416 30.7729 16.543C30.732 16.4445 30.6721 16.3549 30.5966 16.2795C28.0624 13.7454 23.9381 13.7454 21.404 16.2795C21.2516 16.4319 21.166 16.6385 21.166 16.854C21.166 17.0694 21.2516 17.2761 21.404 17.4284C21.5563 17.5808 21.7629 17.6664 21.9784 17.6664C22.1938 17.6664 22.4005 17.5808 22.5528 17.4284C23.4679 16.5156 24.7077 16.003 26.0003 16.003C27.2928 16.003 28.5326 16.5156 29.4477 17.4284Z" fill="#8BC34A"/>
<path d="M27.1487 19.7265C27.2239 19.8023 27.3134 19.8624 27.412 19.9035C27.5105 19.9446 27.6162 19.9657 27.723 19.9658C27.8298 19.9659 27.9355 19.9449 28.0341 19.9039C28.1327 19.863 28.2223 19.803 28.2976 19.7273C28.3731 19.6519 28.4331 19.5622 28.474 19.4636C28.5148 19.365 28.5359 19.2592 28.5359 19.1525C28.5359 19.0457 28.5148 18.94 28.474 18.8413C28.4331 18.7427 28.3731 18.6531 28.2976 18.5776C27.0707 17.3491 24.929 17.3491 23.7021 18.5776C23.6266 18.6531 23.5667 18.7426 23.5258 18.8412C23.485 18.9398 23.4639 19.0455 23.4639 19.1522C23.4638 19.2589 23.4848 19.3646 23.5256 19.4632C23.5664 19.5618 23.6263 19.6514 23.7017 19.7269C23.7771 19.8024 23.8667 19.8623 23.9653 19.9032C24.0639 19.944 24.1695 19.9651 24.2762 19.9651C24.383 19.9652 24.4886 19.9442 24.5873 19.9034C24.6859 19.8626 24.7755 19.8027 24.851 19.7273C25.4652 19.1122 26.5345 19.1122 27.1487 19.7265Z" fill="#8BC34A"/>
<path d="M26 22.5C26.4487 22.5 26.8125 22.1362 26.8125 21.6875C26.8125 21.2388 26.4487 20.875 26 20.875C25.5513 20.875 25.1875 21.2388 25.1875 21.6875C25.1875 22.1362 25.5513 22.5 26 22.5Z" fill="#8BC34A"/>
<path d="M38.1566 27.9324C40.3033 25.1869 41.4375 21.9036 41.4375 18.4375C41.4375 9.92494 34.5126 3 26 3C17.4874 3 10.5625 9.92494 10.5625 18.4375C10.5625 26.9501 17.4874 33.875 26 33.875C29.549 33.875 33.0176 32.6376 35.7646 30.391C35.8508 30.3247 35.9228 30.2418 35.9763 30.1472C36.0299 30.0526 36.0639 29.9482 36.0764 29.8402C36.0889 29.7322 36.0795 29.6228 36.049 29.5185C36.0184 29.4142 35.9672 29.317 35.8984 29.2328C35.8296 29.1487 35.7446 29.0792 35.6485 29.0284C35.5523 28.9777 35.447 28.9467 35.3387 28.9375C35.2303 28.9282 35.1213 28.9407 35.0179 28.9743C34.9145 29.008 34.8189 29.062 34.7368 29.1332C32.2701 31.1463 29.1847 32.2471 26.0008 32.25C18.3844 32.25 12.1883 26.0539 12.1883 18.4375C12.1883 10.8211 18.3844 4.625 26.0008 4.625C33.6172 4.625 39.8133 10.8211 39.8133 18.4375C39.8133 21.5372 38.7977 24.4744 36.8769 26.9314C36.7492 27.1015 36.6933 27.3149 36.7211 27.5258C36.749 27.7366 36.8585 27.9282 37.026 28.0592C37.1936 28.1903 37.4059 28.2504 37.6172 28.2267C37.8286 28.203 38.0223 28.0973 38.1566 27.9324Z" fill="#8BC34A"/>
</svg>
