<svg width="67" height="27" viewBox="0 0 67 27" fill="none" xmlns="http://www.w3.org/2000/svg">
<path d="M31.2609 12.7412V20.3844H28.8201V1.50908H35.2935C36.0662 1.49305 36.8345 1.62919 37.5539 1.90965C38.2734 2.19011 38.9298 2.60934 39.4853 3.14314C40.0465 3.64454 40.493 4.25944 40.7951 4.94653C41.0971 5.63362 41.2476 6.37698 41.2364 7.12664C41.2524 7.88031 41.1043 8.62852 40.802 9.31998C40.4998 10.0115 40.0506 10.6298 39.4853 11.1327C38.3534 12.205 36.9561 12.7407 35.2935 12.7397H31.2609V12.7412ZM31.2609 3.83291V10.4219H35.3542C35.8029 10.4351 36.2495 10.3551 36.6653 10.1871C37.0812 10.019 37.4572 9.7666 37.7692 9.44595C38.0796 9.14615 38.3263 8.78757 38.4948 8.3914C38.6633 7.99523 38.7501 7.56952 38.7501 7.13944C38.7501 6.70936 38.6633 6.28365 38.4948 5.88748C38.3263 5.49131 38.0796 5.13272 37.7692 4.83293C37.4611 4.50552 37.0864 4.24692 36.6701 4.07426C36.2537 3.90159 35.8052 3.81881 35.3542 3.83141H31.2609V3.83291Z" fill="#545151"/>
<path d="M46.8605 7.05078C48.6645 7.05078 50.0886 7.5297 51.1326 8.48755C52.1767 9.4454 52.6982 10.7587 52.6972 12.4274V20.3868H50.3625V18.5946H50.2564C49.2457 20.0706 47.9015 20.8085 46.2237 20.8085C44.7916 20.8085 43.5934 20.3868 42.6292 19.5434C42.1665 19.1564 41.7965 18.6716 41.5463 18.1244C41.2961 17.5773 41.172 16.9816 41.1829 16.3807C41.1829 15.0444 41.6913 13.9816 42.708 13.1924C43.7248 12.4033 45.0821 12.0077 46.7801 12.0057C48.2294 12.0057 49.423 12.2692 50.361 12.7964V12.2421C50.3637 11.8325 50.2747 11.4274 50.1003 11.0562C49.9259 10.685 49.6706 10.357 49.3528 10.096C48.7073 9.5175 47.8662 9.20185 46.9969 9.21196C45.6335 9.21196 44.5546 9.78325 43.7602 10.9258L41.6104 9.58094C42.7929 7.89417 44.5429 7.05078 46.8605 7.05078ZM43.7026 16.4335C43.7009 16.742 43.7735 17.0466 43.9144 17.3216C44.0552 17.5967 44.2601 17.8344 44.5121 18.0148C45.0519 18.4366 45.722 18.6601 46.4087 18.6473C47.4387 18.6456 48.426 18.2384 49.1542 17.5148C49.9628 16.7588 50.367 15.8717 50.367 14.8536C49.606 14.2512 48.5448 13.95 47.1834 13.95C46.1919 13.95 45.3651 14.1874 44.7031 14.6623C44.0346 15.1443 43.7026 15.7301 43.7026 16.4335Z" fill="#545151"/>
<path d="M66.0979 7.46875L57.9477 26.076H55.4281L58.4526 19.5653L53.0934 7.46875H55.7465L59.6199 16.746H59.673L63.4403 7.46875H66.0979Z" fill="#545151"/>
<path d="M21.3952 11.0955C21.3961 10.3565 21.3332 9.61888 21.2072 8.89062H10.9133V13.0669H16.8092C16.6885 13.7339 16.4332 14.3697 16.0585 14.9361C15.6838 15.5024 15.1976 15.9875 14.6291 16.3621V19.073H18.1478C20.2081 17.1859 21.3952 14.3952 21.3952 11.0955Z" fill="#4285F4"/>
<path d="M10.9144 21.6901C13.8601 21.6901 16.3403 20.7292 18.1489 19.0726L14.6302 16.3617C13.6509 17.0213 12.3895 17.3978 10.9144 17.3978C8.06734 17.3978 5.65079 15.4912 4.78665 12.9219H1.16182V15.7156C2.07033 17.5115 3.46342 19.0213 5.18558 20.0763C6.90773 21.1313 8.89117 21.69 10.9144 21.6901Z" fill="#34A853"/>
<path d="M4.78713 12.9209C4.33029 11.5746 4.33029 10.1166 4.78713 8.77028V5.97656H1.1623C0.39803 7.48736 0 9.15477 0 10.8456C0 12.5365 0.39803 14.2039 1.1623 15.7147L4.78713 12.9209Z" fill="#FBBC04"/>
<path d="M10.9144 4.29295C12.4711 4.26768 13.9752 4.85196 15.1017 5.91948L18.2172 2.82455C16.2416 0.981263 13.6245 -0.0307334 10.9144 0.000711438C8.89117 0.000803043 6.90773 0.559537 5.18558 1.61454C3.46342 2.66953 2.07033 4.17927 1.16182 5.9752L4.78665 8.76892C5.65079 6.1996 8.06734 4.29295 10.9144 4.29295Z" fill="#8BC34A"/>
</svg>
