<svg width="44" height="27" viewBox="0 0 44 27" fill="none" xmlns="http://www.w3.org/2000/svg">
<path d="M43.4579 13.0373C43.4579 20.191 37.6412 26.0745 30.4204 26.0745C23.2665 26.0745 17.3829 20.191 17.3829 13.0373C17.3829 5.88348 23.1996 0 30.3536 0C37.6412 0 43.4579 5.88348 43.4579 13.0373Z" fill="#F9B50B"/>
<path d="M26.0082 13.1041C26.0082 12.1681 25.8744 11.2321 25.7407 10.3629H17.7176C17.7845 9.89494 17.9182 9.4938 18.0519 8.95893H25.2059C25.0721 8.49093 24.8716 8.02293 24.671 7.55492H18.5868C18.7874 7.08692 19.0548 6.68577 19.3223 6.15091H23.9355C23.6681 5.68291 23.3338 5.2149 22.9326 4.7469H20.392C20.7932 4.27889 21.1943 3.87775 21.7292 3.40974C19.456 1.2703 16.3805 0 12.9707 0C5.88359 0.200573 0 5.88348 0 13.0373C0 20.191 5.81674 26.0745 13.0375 26.0745C16.4473 26.0745 19.456 24.7374 21.796 22.6648C22.2641 22.2636 22.6652 21.7956 23.1332 21.2608H20.4589C20.1246 20.8596 19.7903 20.3916 19.5228 19.9236H24.0693C24.3367 19.5225 24.6041 19.0544 24.8047 18.5196H18.7205C18.52 18.1184 18.3194 17.6504 18.1857 17.1156H25.3396C25.7407 15.9121 26.0082 14.575 26.0082 13.1041Z" fill="#C8191C"/>
<path d="M17.6504 16.3809L17.851 15.1775C17.7841 15.1775 17.6504 15.2443 17.5167 15.2443C17.0487 15.2443 16.9818 14.9769 17.0487 14.8432L17.4498 12.4363H18.1853L18.3858 11.0992H17.7172L17.851 10.2969H16.4469C16.4469 10.2969 15.6446 14.8432 15.6446 15.3781C15.6446 16.1804 16.1126 16.5815 16.7812 16.5815C17.1824 16.5815 17.5167 16.4478 17.6504 16.3809Z" fill="#ECF6DB"/>
<path d="M18.1183 14.1722C18.1183 16.1111 19.4554 16.5791 20.5252 16.5791C21.5281 16.5791 21.9961 16.3785 21.9961 16.3785L22.2635 15.0414C22.2635 15.0414 21.5281 15.3756 20.7926 15.3756C19.2549 15.3756 19.5223 14.2391 19.5223 14.2391H22.3304C22.3304 14.2391 22.531 13.3699 22.531 12.9688C22.531 12.0996 22.0629 10.963 20.5252 10.963C19.188 10.8962 18.1183 12.4339 18.1183 14.1722ZM20.5252 12.1665C21.2606 12.1665 21.1269 13.0356 21.1269 13.1025H19.5892C19.656 13.0356 19.7897 12.1665 20.5252 12.1665Z" fill="#ECF6DB"/>
<path d="M29.2847 16.3815L29.5522 14.8438C29.5522 14.8438 28.8836 15.1781 28.3487 15.1781C27.4127 15.1781 26.9447 14.4427 26.9447 13.5735C26.9447 11.9021 27.747 11.0329 28.7499 11.0329C29.4184 11.0329 30.0202 11.4341 30.0202 11.4341L30.2208 9.96319C30.2208 9.96319 29.4184 9.62891 28.6161 9.62891C27.0115 9.62891 25.4738 11.0329 25.4738 13.6404C25.4738 15.3787 26.2761 16.5153 27.9475 16.5153C28.5493 16.5821 29.2847 16.3815 29.2847 16.3815Z" fill="#ECF6DB"/>
<path d="M10.0958 10.8984C9.1598 10.8984 8.42435 11.1659 8.42435 11.1659L8.22377 12.3693C8.22377 12.3693 8.8255 12.1019 9.76153 12.1019C10.2295 12.1019 10.6307 12.1687 10.6307 12.5699C10.6307 12.8373 10.5638 12.9042 10.5638 12.9042H9.9621C8.75864 12.9042 7.48832 13.3722 7.48832 14.9768C7.48832 16.2471 8.29063 16.5145 8.8255 16.5145C9.76153 16.5145 10.2295 15.9128 10.2964 15.9128L10.2295 16.4476H11.3661L11.901 12.6367C11.901 10.9653 10.5638 10.8984 10.0958 10.8984ZM10.3633 13.9739C10.3633 14.1745 10.2295 15.311 9.42723 15.311C9.02608 15.311 8.89236 14.9768 8.89236 14.7762C8.89236 14.4419 9.09294 13.9739 10.1627 13.9739C10.2964 13.9739 10.3633 13.9739 10.3633 13.9739Z" fill="#ECF6DB"/>
<path d="M13.237 16.5149C13.5713 16.5149 15.3096 16.5818 15.3096 14.7098C15.3096 12.9715 13.6381 13.3058 13.6381 12.6372C13.6381 12.3029 13.9056 12.1692 14.3736 12.1692C14.5741 12.1692 15.3096 12.236 15.3096 12.236L15.5102 10.9657C15.5102 10.9657 15.0422 10.832 14.173 10.832C13.1701 10.832 12.1004 11.2332 12.1004 12.6372C12.1004 14.2418 13.8387 14.1081 13.8387 14.7098C13.8387 15.1109 13.3707 15.1778 13.0364 15.1778C12.4347 15.1778 11.7661 14.9772 11.7661 14.9772L11.5655 16.2475C11.6992 16.3812 12.1004 16.5149 13.237 16.5149Z" fill="#ECF6DB"/>
<path d="M40.7837 9.82812L40.5163 11.7001C40.5163 11.7001 39.9814 11.0316 39.1791 11.0316C37.9088 11.0316 36.8391 12.5693 36.8391 14.3744C36.8391 15.511 37.3739 16.6476 38.5774 16.6476C39.3797 16.6476 39.9146 16.1128 39.9146 16.1128L39.8477 16.5808H41.2517L42.2546 9.96184L40.7837 9.82812ZM40.1151 13.4384C40.1151 14.1739 39.7808 15.1767 38.9785 15.1767C38.5105 15.1767 38.2431 14.7756 38.2431 14.0402C38.2431 12.9036 38.7111 12.235 39.3797 12.235C39.8477 12.3019 40.1151 12.6361 40.1151 13.4384Z" fill="#ECF6DB"/>
<path d="M2.54031 16.447L3.34262 11.4996L3.47634 16.447H4.41237L6.21756 11.4996L5.48211 16.447H6.95301L8.08961 9.82812H5.81641L4.41237 13.9064L4.34551 9.82812H2.33974L1.20313 16.447H2.54031Z" fill="#ECF6DB"/>
<path d="M23.9353 16.4506C24.3365 14.1775 24.4033 12.3055 25.4062 12.6397C25.54 11.7706 25.7405 11.3694 25.8742 11.0352H25.6068C25.0051 11.0352 24.4702 11.8374 24.4702 11.8374L24.6039 11.102H23.2667L22.3976 16.4506H23.9353Z" fill="#ECF6DB"/>
<path d="M32.4934 10.8984C31.5574 10.8984 30.8219 11.1659 30.8219 11.1659L30.6213 12.3693C30.6213 12.3693 31.2231 12.1019 32.1591 12.1019C32.6271 12.1019 33.0283 12.1687 33.0283 12.5699C33.0283 12.8373 32.9614 12.9042 32.9614 12.9042H32.3597C31.1562 12.9042 29.8859 13.3722 29.8859 14.9768C29.8859 16.2471 30.6882 16.5145 31.2231 16.5145C32.1591 16.5145 32.6271 15.9128 32.694 15.9128L32.6271 16.4476H33.8974L34.4323 12.6367C34.4323 10.9653 32.9614 10.8984 32.4934 10.8984ZM32.8277 13.9739C32.8277 14.1745 32.694 15.311 31.8917 15.311C31.4905 15.311 31.3568 14.9768 31.3568 14.7762C31.3568 14.4419 31.5574 13.9739 32.6271 13.9739C32.7608 13.9739 32.7608 13.9739 32.8277 13.9739Z" fill="#ECF6DB"/>
<path d="M35.5018 16.4506C35.903 14.1775 35.9698 12.3055 36.9727 12.6397C37.1064 11.7706 37.307 11.3694 37.4407 11.0352H37.1733C36.5715 11.0352 36.0367 11.8374 36.0367 11.8374L36.1704 11.102H34.8332L33.964 16.4506H35.5018Z" fill="#ECF6DB"/>
</svg>
