<svg width="108" height="121" viewBox="0 0 108 121" fill="none" xmlns="http://www.w3.org/2000/svg">
<g filter="url(#filter0_d_2_1019)">
<circle cx="54" cy="63" r="50" fill="white"/>
<circle cx="54" cy="63" r="49.75" stroke="#8BC34A" stroke-width="0.5"/>
</g>
<circle cx="54.5" cy="12.5" r="12.5" fill="#8BC34A"/>
<path d="M54.256 18.192C53.4773 18.192 52.704 18.0907 51.936 17.888C51.168 17.6747 50.5173 17.376 49.984 16.992L50.992 15.008C51.4187 15.3173 51.9147 15.5627 52.48 15.744C53.0453 15.9253 53.616 16.016 54.192 16.016C54.8427 16.016 55.3547 15.888 55.728 15.632C56.1013 15.376 56.288 15.024 56.288 14.576C56.288 14.1493 56.1227 13.8133 55.792 13.568C55.4613 13.3227 54.928 13.2 54.192 13.2H53.008V11.488L56.128 7.952L56.416 8.88H50.544V6.8H58.384V8.48L55.28 12.016L53.968 11.264H54.72C56.096 11.264 57.136 11.5733 57.84 12.192C58.544 12.8107 58.896 13.6053 58.896 14.576C58.896 15.2053 58.7307 15.7973 58.4 16.352C58.0693 16.896 57.5627 17.3387 56.88 17.68C56.1973 18.0213 55.3227 18.192 54.256 18.192Z" fill="white"/>
<path d="M30.7581 66.2617C30.6418 65.971 30.5796 65.6586 30.5796 65.3367C30.5796 64.6717 30.8391 64.0455 31.3105 63.5741L42.3069 52.568C42.1089 52.5445 41.9091 52.5285 41.7069 52.5285H41.6607C40.939 52.5285 40.2946 52.0977 40.0184 51.4306C39.7425 50.7635 39.8936 50.0025 40.4037 49.4919L45.2153 44.6761C45.8868 44.004 46.7794 43.634 47.7289 43.634H48.2169C49.0384 43.634 49.8165 43.9118 50.4461 44.4217L53.0119 41.8536C53.5486 41.3164 54.4831 41.3164 55.0195 41.8536L55.4376 42.272L57.6209 40.0865C59.2322 38.4741 61.3746 37.5857 63.6535 37.5857H71.0782C71.8623 37.5857 72.5001 38.224 72.5001 39.0088V42.5666C72.5001 43.3515 71.8623 43.9898 71.0782 43.9898H66.1418C64.2429 43.9898 62.4574 44.7298 61.1148 46.0739L60.1639 47.0257C60.6046 47.5828 60.5744 48.3936 60.0601 48.9084L57.5096 51.4612L58.0986 52.0507C58.9041 52.8569 59.3477 53.9292 59.3477 55.0695V63.863C59.3477 65.0033 58.9041 66.0753 58.0982 66.8818L49.0338 75.9543C48.2279 76.7605 47.1569 77.2048 46.0176 77.2048C44.8783 77.2048 43.807 76.7605 43.0015 75.9543L37.9862 70.9345C37.5681 71.216 37.0833 71.3576 36.5977 71.3576C36.2892 71.3576 35.9813 71.2996 35.6902 71.1861C34.2093 72.839 33.3985 74.9517 33.3985 77.1892V82.4142C33.3985 82.807 33.08 83.1258 32.6875 83.1258C32.2951 83.1258 31.9766 82.807 31.9766 82.4142V77.1888C31.9766 74.6418 32.8852 72.2356 34.5449 70.3361L31.6211 67.4098L31.0574 67.9741C29.3579 69.6751 28.4219 71.9368 28.4219 74.3422V82.4142C28.4219 82.807 28.1034 83.1258 27.711 83.1258C27.3185 83.1258 27 82.807 27 82.4142V74.3426C27 71.5568 28.0838 68.9379 30.0521 66.9679L30.7581 66.2617ZM66.1418 42.5666H71.0782V39.0088H63.6535C61.7546 39.0088 59.9691 39.7488 58.6265 41.093L56.4428 43.2782L59.17 46.0074L60.1091 45.0674C61.7205 43.455 63.8629 42.5666 66.1418 42.5666ZM59.0548 47.9048L54.0175 42.8598L51.4666 45.4129L56.5043 50.455L59.0548 47.9048ZM44.0067 74.9481C44.5439 75.4857 45.258 75.7817 46.0176 75.7817C46.7773 75.7817 47.4914 75.4857 48.0285 74.9481L57.093 65.8757C57.6301 65.3381 57.9259 64.6233 57.9259 63.863V55.0695C57.9259 54.3092 57.6301 53.5944 57.093 53.0568L49.7248 45.6822C49.3221 45.2791 48.7864 45.0571 48.2169 45.0571H47.7289C47.1591 45.0571 46.6237 45.2791 46.221 45.6822L41.4094 50.4981C41.2579 50.6496 41.3049 50.8197 41.3322 50.8859C41.3596 50.9517 41.4463 51.1054 41.6607 51.1054H41.7069C43.416 51.1054 45.0227 51.7714 46.2313 52.9811L53.4697 60.2262C54.074 60.831 54.4067 61.6351 54.4067 62.4904C54.4067 63.3457 54.0736 64.1498 53.4697 64.7546L47.495 70.7342C46.9579 71.2718 46.2437 71.5678 45.4841 71.5678C44.7244 71.5678 44.0103 71.2718 43.4732 70.7342L40.863 68.1214L39.0248 69.9615L44.0067 74.9481ZM52.581 61.3747L47.3546 66.6061L46.3358 69.8526C46.3888 69.8135 46.4424 69.7757 46.4901 69.7281L52.4648 63.7481C52.8003 63.4122 52.9852 62.9654 52.9852 62.4904C52.9852 62.0773 52.8384 61.6906 52.581 61.3747ZM44.8108 69.9622L46.0063 66.1532L44.418 64.5636L41.8686 67.1152L44.4792 69.7277C44.5769 69.8263 44.6914 69.8999 44.8108 69.9622ZM46.9063 65.0421L48.5671 63.3799L47.084 61.8955L45.4233 63.5578L46.9063 65.0421ZM49.5723 62.3737L51.5885 60.3557L50.1055 58.8714L48.0893 60.8894L49.5723 62.3737ZM35.842 69.6224C36.2476 70.0283 36.9478 70.0283 37.3534 69.6224L49.1003 57.8652L45.2257 53.9876C44.8229 53.5845 44.3608 53.2643 43.8624 53.0238L32.3161 64.5802C31.8995 64.9972 31.8995 65.6761 32.3161 66.093L35.842 69.6224Z" fill="#8BC34A"/>
<path d="M67.168 64.2707C64.228 64.2707 61.836 61.8766 61.836 58.934C61.836 56.2258 66.1066 50.2881 66.5936 49.62C66.6596 49.5295 66.7461 49.4558 66.8459 49.4051C66.9457 49.3543 67.0561 49.3279 67.168 49.3279C67.28 49.3279 67.3904 49.3543 67.4902 49.4051C67.59 49.4558 67.6765 49.5295 67.7425 49.62C68.2295 50.2881 72.5001 56.2258 72.5001 58.934C72.5001 61.8766 70.1081 64.2707 67.168 64.2707ZM67.168 51.2704C65.7095 53.3817 63.2579 57.2771 63.2579 58.934C63.2579 61.0918 65.0121 62.8476 67.168 62.8476C69.324 62.8476 71.0782 61.0918 71.0782 58.934C71.0782 57.2771 68.6265 53.3816 67.168 51.2704Z" fill="#8BC34A"/>
<defs>
<filter id="filter0_d_2_1019" x="0" y="13" width="108" height="108" filterUnits="userSpaceOnUse" color-interpolation-filters="sRGB">
<feFlood flood-opacity="0" result="BackgroundImageFix"/>
<feColorMatrix in="SourceAlpha" type="matrix" values="0 0 0 0 0 0 0 0 0 0 0 0 0 0 0 0 0 0 127 0" result="hardAlpha"/>
<feOffset dy="4"/>
<feGaussianBlur stdDeviation="2"/>
<feComposite in2="hardAlpha" operator="out"/>
<feColorMatrix type="matrix" values="0 0 0 0 0 0 0 0 0 0 0 0 0 0 0 0 0 0 0.1 0"/>
<feBlend mode="normal" in2="BackgroundImageFix" result="effect1_dropShadow_2_1019"/>
<feBlend mode="normal" in="SourceGraphic" in2="effect1_dropShadow_2_1019" result="shape"/>
</filter>
</defs>
</svg>
