<svg width="108" height="121" viewBox="0 0 108 121" fill="none" xmlns="http://www.w3.org/2000/svg">
<g filter="url(#filter0_d_222_3063)">
<circle cx="54" cy="63" r="50" fill="white"/>
<circle cx="54" cy="63" r="49.75" stroke="#8BC34A" stroke-width="0.5"/>
</g>
<circle cx="54.5" cy="12.5" r="12.5" fill="#8BC34A"/>
<path d="M53.432 18.192C52.6533 18.192 51.88 18.0907 51.112 17.888C50.3547 17.6747 49.704 17.376 49.16 16.992L50.184 15.008C50.6107 15.3173 51.1013 15.5627 51.656 15.744C52.2213 15.9253 52.792 16.016 53.368 16.016C54.0187 16.016 54.5307 15.888 54.904 15.632C55.2773 15.376 55.464 15.0187 55.464 14.56C55.464 14.272 55.3893 14.016 55.24 13.792C55.0907 13.568 54.824 13.3973 54.44 13.28C54.0667 13.1627 53.5387 13.104 52.856 13.104H49.992L50.568 6.8H57.4V8.88H51.496L52.84 7.696L52.44 12.192L51.096 11.008H53.464C54.5733 11.008 55.464 11.1627 56.136 11.472C56.8187 11.7707 57.3147 12.1813 57.624 12.704C57.9333 13.2267 58.088 13.8187 58.088 14.48C58.088 15.1413 57.9227 15.7547 57.592 16.32C57.2613 16.8747 56.7493 17.328 56.056 17.68C55.3733 18.0213 54.4987 18.192 53.432 18.192Z" fill="white"/>
<path d="M46.369 57.8981C46.3033 57.9822 46.2548 58.0784 46.2263 58.1813C46.1978 58.2842 46.1899 58.3916 46.2029 58.4976C46.216 58.6035 46.2498 58.7058 46.3024 58.7987C46.355 58.8916 46.4254 58.9732 46.5096 59.0388C48.6437 60.7201 51.2831 61.6314 54 61.625C60.7202 61.625 66.1875 56.1577 66.1875 49.4375C66.1875 42.7173 60.7202 37.25 54 37.25C47.2798 37.25 41.8125 42.7173 41.8125 49.4375C41.8125 51.9904 42.6031 54.4417 44.0981 56.5266C44.1603 56.6133 44.239 56.6868 44.3297 56.7431C44.4204 56.7994 44.5213 56.8372 44.6267 56.8545C44.732 56.8718 44.8397 56.8681 44.9436 56.8438C45.0475 56.8195 45.1456 56.7749 45.2323 56.7126C45.319 56.6504 45.3926 56.5716 45.4489 56.4809C45.5051 56.3902 45.543 56.2894 45.5603 56.184C45.5775 56.0787 45.5739 55.971 45.5496 55.8671C45.5252 55.7632 45.4806 55.6651 45.4184 55.5784C44.6775 54.5453 44.1297 53.3867 43.8015 52.1586L46.5697 52.4356C47.1022 52.4895 47.6022 52.7168 47.9928 53.0827C48.3835 53.4485 48.6431 53.9326 48.7317 54.4604L49.4841 58.9738C48.7836 58.6412 48.1213 58.2334 47.5089 57.7575C47.4249 57.6918 47.3287 57.6434 47.2259 57.6149C47.1231 57.5864 47.0157 57.5784 46.9098 57.5915C46.804 57.6046 46.7017 57.6383 46.6089 57.6909C46.5161 57.7436 46.4346 57.8139 46.369 57.8981ZM58.5159 58.9714L59.2682 54.4604C59.357 53.9326 59.6167 53.4486 60.0073 53.0828C60.3979 52.717 60.8979 52.4896 61.4303 52.4356L64.1944 52.1594C63.7963 53.6377 63.0825 55.0121 62.1022 56.1881C61.1219 57.3641 59.8984 58.3136 58.5159 58.9714ZM50.3348 54.1931C50.1869 53.3135 49.7542 52.5068 49.1031 51.8972C48.4521 51.2875 47.6188 50.9086 46.7314 50.8188L43.496 50.4954C43.4593 50.1439 43.4398 49.7909 43.4375 49.4375C43.4375 47.7418 43.8486 46.1436 44.562 44.7218L50.5753 43.5964C52.8515 43.1684 55.1877 43.1689 57.4637 43.5981L59.1716 43.919C59.2764 43.9389 59.3841 43.9379 59.4886 43.916C59.5931 43.8941 59.6922 43.8519 59.7803 43.7917C59.8683 43.7314 59.9437 43.6544 60.0019 43.565C60.0602 43.4756 60.1002 43.3755 60.1198 43.2706C60.1396 43.1658 60.1386 43.058 60.1167 42.9536C60.0949 42.8491 60.0526 42.75 59.9924 42.6619C59.9322 42.5738 59.8551 42.4985 59.7657 42.4403C59.6763 42.382 59.5763 42.342 59.4714 42.3224L57.7635 42.0015C55.2899 41.5346 52.7509 41.534 50.2771 41.9999L45.7613 42.8449C47.6991 40.4285 50.6696 38.875 54 38.875C59.824 38.875 64.5625 43.6135 64.5625 49.4375C64.5625 49.7942 64.5438 50.1468 64.5089 50.4954L61.2678 50.8196C60.3805 50.9096 59.5472 51.2885 58.8962 51.8981C58.2452 52.5078 57.8124 53.3143 57.6644 54.1939L56.7592 59.6222C55.8777 59.8611 54.9555 60.0008 53.9992 60.0008C53.0542 60.0008 52.1304 59.8716 51.2407 59.6303L50.3348 54.1931Z" fill="#8BC34A"/>
<path d="M70.9697 70.659C70.777 70.5626 70.6304 70.3938 70.562 70.1895L69.4789 66.9387C69.4342 66.8046 69.4253 66.6613 69.4529 66.5227L69.7625 64.9749C69.8575 64.502 69.7667 64.0107 69.5088 63.603C69.251 63.1954 68.846 62.9028 68.378 62.786L67.1251 67.1711C67.0423 67.4611 67 67.7609 67 68.064V73.0365C67.0004 73.5408 67.1181 74.0382 67.3437 74.4893L67.8125 75.4285C68.3453 76.4977 68.6234 77.6757 68.625 78.8703C68.625 79.0857 68.5394 79.2924 68.387 79.4448C68.2347 79.5972 68.028 79.6828 67.8125 79.6828C67.597 79.6828 67.3903 79.5972 67.238 79.4448C67.0856 79.2924 67 79.0857 67 78.8703C66.999 77.9277 66.7796 76.9983 66.3589 76.1549L65.8901 75.2164C65.5538 74.5437 65.375 73.7897 65.375 73.0365V68.064C65.3749 67.6108 65.4384 67.1598 65.5635 66.7242L66.8156 62.3399C66.9301 61.9339 67.1986 61.5886 67.5638 61.3776C67.9291 61.1665 68.3623 61.1063 68.7713 61.2098C69.6452 61.4268 70.4017 61.9725 70.8833 62.7333C71.3649 63.4942 71.5344 64.4115 71.3566 65.2942L71.0893 66.6308L71.2136 67.0029L72.4307 64.5686C72.5989 64.2314 72.6875 63.8544 72.6875 63.4783V59.8976C72.6875 59.6351 72.6452 59.3759 72.5624 59.1265L71.6085 56.2641C71.4097 55.6589 71.4345 55.0025 71.6782 54.414C71.9219 53.8255 72.3685 53.3438 72.9369 53.0563C73.269 52.8908 73.6322 52.7967 74.0029 52.78C74.3736 52.7634 74.7436 52.8246 75.0893 52.9596C75.4349 53.0955 75.7481 53.3023 76.0087 53.5668C76.2693 53.8314 76.4715 54.1477 76.6021 54.4953L77.9614 58.1198C78.2361 58.8535 78.375 59.6213 78.375 60.4021V63.7748C78.375 64.1307 78.3449 64.4898 78.2864 64.8433L76.75 74.0627V78.8703C76.75 79.0857 76.6644 79.2924 76.512 79.4448C76.3597 79.5972 76.153 79.6828 75.9375 79.6828C75.722 79.6828 75.5153 79.5972 75.363 79.4448C75.2106 79.2924 75.125 79.0857 75.125 78.8703V73.9953C75.1251 73.9506 75.1289 73.906 75.1364 73.862L76.6834 64.5759C76.7281 64.3111 76.75 64.0413 76.75 63.7748V60.4021C76.75 59.8172 76.6448 59.2371 76.4396 58.6894L75.0803 55.0664C74.9771 54.791 74.7691 54.5798 74.4953 54.4725C74.3619 54.4194 74.2187 54.3952 74.0753 54.4017C73.9318 54.4081 73.7914 54.445 73.6633 54.5099C73.4434 54.621 73.2707 54.8073 73.1764 55.035C73.0822 55.2626 73.0728 55.5165 73.1498 55.7506L74.1037 58.613C74.2426 59.0282 74.3125 59.4604 74.3125 59.8976V63.4783C74.3114 64.1085 74.1649 64.7299 73.8843 65.2942L71.94 69.182L72.1041 69.676C72.2455 70.1018 72.0147 70.5624 71.5898 70.7038C71.3853 70.7715 71.1623 70.7554 70.9697 70.659Z" fill="#8BC34A"/>
<path d="M37.4053 70.659C37.598 70.5626 37.7446 70.3938 37.813 70.1895L38.8961 66.9387C38.9408 66.8046 38.9497 66.6613 38.9221 66.5227L38.6125 64.9749C38.5175 64.502 38.6083 64.0107 38.8662 63.603C39.124 63.1954 39.529 62.9028 39.997 62.786L41.2499 67.1711C41.3327 67.4611 41.375 67.7609 41.375 68.064V73.0365C41.3746 73.5408 41.2569 74.0382 41.0313 74.4893L40.5625 75.4285C40.0297 76.4977 39.7516 77.6757 39.75 78.8703C39.75 79.0857 39.8356 79.2924 39.988 79.4448C40.1403 79.5972 40.347 79.6828 40.5625 79.6828C40.778 79.6828 40.9847 79.5972 41.137 79.4448C41.2894 79.2924 41.375 79.0857 41.375 78.8703C41.376 77.9277 41.5954 76.9983 42.0161 76.1549L42.4849 75.2164C42.8212 74.5437 43 73.7897 43 73.0365V68.064C43.0001 67.6108 42.9366 67.1598 42.8115 66.7242L41.5594 62.3399C41.4449 61.9339 41.1764 61.5886 40.8112 61.3776C40.4459 61.1665 40.0127 61.1063 39.6037 61.2098C38.7298 61.4268 37.9733 61.9725 37.4917 62.7333C37.0101 63.4942 36.8406 64.4115 37.0184 65.2942L37.2857 66.6308L37.1614 67.0029L35.9443 64.5686C35.7761 64.2314 35.6875 63.8544 35.6875 63.4783V59.8976C35.6875 59.6351 35.7298 59.3759 35.8126 59.1265L36.7665 56.2641C36.9653 55.6589 36.9405 55.0025 36.6968 54.414C36.4531 53.8255 36.0065 53.3438 35.4381 53.0563C35.106 52.8908 34.7428 52.7967 34.3721 52.78C34.0014 52.7634 33.6314 52.8246 33.2857 52.9596C32.9401 53.0955 32.6269 53.3023 32.3663 53.5668C32.1057 53.8314 31.9035 54.1477 31.7729 54.4953L30.4136 58.1198C30.1389 58.8535 30 59.6213 30 60.4021V63.7748C30 64.1307 30.0301 64.4898 30.0886 64.8433L31.625 74.0627V78.8703C31.625 79.0857 31.7106 79.2924 31.863 79.4448C32.0153 79.5972 32.222 79.6828 32.4375 79.6828C32.653 79.6828 32.8597 79.5972 33.012 79.4448C33.1644 79.2924 33.25 79.0857 33.25 78.8703V73.9953C33.2499 73.9506 33.2461 73.906 33.2386 73.862L31.6916 64.5759C31.6469 64.3111 31.625 64.0413 31.625 63.7748V60.4021C31.625 59.8172 31.7302 59.2371 31.9354 58.6894L33.2947 55.0664C33.3979 54.791 33.6059 54.5798 33.8797 54.4725C34.0131 54.4194 34.1563 54.3952 34.2997 54.4017C34.4432 54.4081 34.5836 54.445 34.7117 54.5099C34.9316 54.621 35.1043 54.8073 35.1986 55.035C35.2928 55.2626 35.3022 55.5165 35.2252 55.7506L34.2713 58.613C34.1324 59.0282 34.0625 59.4604 34.0625 59.8976V63.4783C34.0636 64.1085 34.2101 64.7299 34.4907 65.2942L36.435 69.182L36.2709 69.676C36.1295 70.1018 36.3603 70.5624 36.7852 70.7038C36.9897 70.7715 37.2127 70.7554 37.4053 70.659Z" fill="#8BC34A"/>
<path d="M57.4477 48.4284C57.523 48.5041 57.6125 48.5642 57.7111 48.6052C57.8097 48.6462 57.9154 48.6673 58.0221 48.6673C58.1289 48.6673 58.2346 48.6462 58.3332 48.6052C58.4318 48.5642 58.5213 48.5041 58.5966 48.4284C58.6721 48.353 58.732 48.2635 58.7729 48.1649C58.8138 48.0664 58.8348 47.9607 58.8348 47.854C58.8348 47.7473 58.8138 47.6416 58.7729 47.543C58.732 47.4445 58.6721 47.3549 58.5966 47.2795C56.0624 44.7454 51.9381 44.7454 49.404 47.2795C49.2516 47.4319 49.166 47.6385 49.166 47.854C49.166 48.0694 49.2516 48.2761 49.404 48.4284C49.5563 48.5808 49.7629 48.6664 49.9784 48.6664C50.1938 48.6664 50.4005 48.5808 50.5528 48.4284C51.4679 47.5156 52.7077 47.003 54.0003 47.003C55.2928 47.003 56.5326 47.5156 57.4477 48.4284Z" fill="#8BC34A"/>
<path d="M55.1487 50.7265C55.2239 50.8023 55.3134 50.8624 55.412 50.9035C55.5105 50.9446 55.6162 50.9657 55.723 50.9658C55.8298 50.9659 55.9355 50.9449 56.0341 50.9039C56.1327 50.863 56.2223 50.803 56.2976 50.7273C56.3731 50.6519 56.4331 50.5622 56.474 50.4636C56.5148 50.365 56.5359 50.2592 56.5359 50.1525C56.5359 50.0457 56.5148 49.94 56.474 49.8413C56.4331 49.7427 56.3731 49.6531 56.2976 49.5776C55.0707 48.3491 52.929 48.3491 51.7021 49.5776C51.6266 49.6531 51.5667 49.7426 51.5258 49.8412C51.485 49.9398 51.4639 50.0455 51.4639 50.1522C51.4638 50.2589 51.4848 50.3646 51.5256 50.4632C51.5664 50.5618 51.6263 50.6514 51.7017 50.7269C51.7771 50.8024 51.8667 50.8623 51.9653 50.9032C52.0639 50.944 52.1695 50.9651 52.2762 50.9651C52.383 50.9652 52.4886 50.9442 52.5873 50.9034C52.6859 50.8626 52.7755 50.8027 52.851 50.7273C53.4652 50.1122 54.5345 50.1122 55.1487 50.7265Z" fill="#8BC34A"/>
<path d="M54 53.5C54.4487 53.5 54.8125 53.1362 54.8125 52.6875C54.8125 52.2388 54.4487 51.875 54 51.875C53.5513 51.875 53.1875 52.2388 53.1875 52.6875C53.1875 53.1362 53.5513 53.5 54 53.5Z" fill="#8BC34A"/>
<path d="M66.1566 58.9324C68.3033 56.1869 69.4375 52.9036 69.4375 49.4375C69.4375 40.9249 62.5126 34 54 34C45.4874 34 38.5625 40.9249 38.5625 49.4375C38.5625 57.9501 45.4874 64.875 54 64.875C57.549 64.875 61.0176 63.6376 63.7646 61.391C63.8508 61.3247 63.9228 61.2418 63.9763 61.1472C64.0299 61.0526 64.0639 60.9482 64.0764 60.8402C64.0889 60.7322 64.0795 60.6228 64.049 60.5185C64.0184 60.4142 63.9672 60.317 63.8984 60.2328C63.8296 60.1487 63.7446 60.0792 63.6485 60.0284C63.5523 59.9777 63.447 59.9467 63.3387 59.9375C63.2303 59.9282 63.1213 59.9407 63.0179 59.9743C62.9145 60.008 62.8189 60.062 62.7368 60.1332C60.2701 62.1463 57.1847 63.2471 54.0008 63.25C46.3844 63.25 40.1883 57.0539 40.1883 49.4375C40.1883 41.8211 46.3844 35.625 54.0008 35.625C61.6172 35.625 67.8133 41.8211 67.8133 49.4375C67.8133 52.5372 66.7977 55.4744 64.8769 57.9314C64.7492 58.1015 64.6933 58.3149 64.7211 58.5258C64.749 58.7366 64.8585 58.9282 65.026 59.0592C65.1936 59.1903 65.4059 59.2504 65.6172 59.2267C65.8286 59.203 66.0223 59.0973 66.1566 58.9324Z" fill="#8BC34A"/>
<defs>
<filter id="filter0_d_222_3063" x="0" y="13" width="108" height="108" filterUnits="userSpaceOnUse" color-interpolation-filters="sRGB">
<feFlood flood-opacity="0" result="BackgroundImageFix"/>
<feColorMatrix in="SourceAlpha" type="matrix" values="0 0 0 0 0 0 0 0 0 0 0 0 0 0 0 0 0 0 127 0" result="hardAlpha"/>
<feOffset dy="4"/>
<feGaussianBlur stdDeviation="2"/>
<feComposite in2="hardAlpha" operator="out"/>
<feColorMatrix type="matrix" values="0 0 0 0 0 0 0 0 0 0 0 0 0 0 0 0 0 0 0.1 0"/>
<feBlend mode="normal" in2="BackgroundImageFix" result="effect1_dropShadow_222_3063"/>
<feBlend mode="normal" in="SourceGraphic" in2="effect1_dropShadow_222_3063" result="shape"/>
</filter>
</defs>
</svg>
