<svg width="108" height="121" viewBox="0 0 108 121" fill="none" xmlns="http://www.w3.org/2000/svg">
<g filter="url(#filter0_d_222_3880)">
<circle cx="54" cy="63" r="50" fill="white"/>
<circle cx="54" cy="63" r="49.75" stroke="#8BC34A" stroke-width="0.5"/>
</g>
<g clip-path="url(#clip0_222_3880)">
<path d="M70.4844 73.7635C73.5287 72.5574 75.6816 69.5867 75.6816 66.1131C75.6816 62.9804 73.9302 60.2572 71.3533 58.8681C71.3554 58.7783 71.3567 58.6884 71.3567 58.5982C71.3567 52.4753 66.3932 47.5117 60.2703 47.5117C57.436 47.5117 54.8505 48.5759 52.8905 50.3257C51.4841 49.2161 49.71 48.5522 47.7795 48.5522C43.9035 48.5522 40.6546 51.2231 39.7644 54.8241C35.9714 56.4713 33.3184 60.2499 33.3184 64.6487C33.3184 70.5618 38.1119 75.3554 44.025 75.3554C44.7123 75.3554 45.3843 75.2898 46.0356 75.1661C46.7328 75.6345 47.5713 75.9089 48.4746 75.9089C49.2585 75.9089 49.9937 75.7021 50.6304 75.3417C52.1718 76.889 54.3035 77.8476 56.6604 77.8476C58.3527 77.8476 59.9292 77.3537 61.2543 76.5022" stroke="#8BC34A" stroke-width="1.5" stroke-miterlimit="10" stroke-linecap="round" stroke-linejoin="round"/>
<path d="M36.5422 47.768C38.3227 47.768 39.766 46.3246 39.766 44.5441C39.766 42.7637 38.3227 41.3203 36.5422 41.3203C34.7617 41.3203 33.3184 42.7637 33.3184 44.5441C33.3184 46.3246 34.7617 47.768 36.5422 47.768Z" stroke="#8BC34A" stroke-width="1.5" stroke-miterlimit="10" stroke-linecap="round" stroke-linejoin="round"/>
<path d="M46.9845 59.1247C46.2583 58.6341 45.3828 58.3477 44.4405 58.3477C41.9277 58.3477 39.8906 60.3848 39.8906 62.8976C39.8906 65.4104 41.9278 67.4475 44.4405 67.4475C45.4611 67.4475 46.3006 67.1115 46.9377 66.5441C47.0695 66.4266 47.1927 66.2994 47.307 66.1631" stroke="#8BC34A" stroke-width="1.5" stroke-miterlimit="10" stroke-linecap="round" stroke-linejoin="round"/>
<path d="M67.1784 67.4334C67.1784 67.4334 63.9257 67.4743 63.7716 67.423C63.6176 67.3717 64.0187 67.1003 66.1512 64.0533C66.5494 63.4843 66.7687 63.0042 66.862 62.602L66.895 62.3434C66.895 61.3987 66.1291 60.6328 65.1844 60.6328C64.3531 60.6328 63.6603 61.2258 63.5059 62.0119" stroke="#8BC34A" stroke-width="1.5" stroke-miterlimit="10" stroke-linecap="round" stroke-linejoin="round"/>
<path d="M55.0284 67.4475C57.5413 67.4475 59.5784 65.4104 59.5784 62.8976C59.5784 60.3847 57.5413 58.3477 55.0284 58.3477C52.5156 58.3477 50.4785 60.3847 50.4785 62.8976C50.4785 65.4104 52.5156 67.4475 55.0284 67.4475Z" stroke="#8BC34A" stroke-width="1.5" stroke-miterlimit="10" stroke-linecap="round" stroke-linejoin="round"/>
<path d="M66.8426 83.6812C69.8482 83.6812 72.2848 81.2447 72.2848 78.2391C72.2848 75.2334 69.8482 72.7969 66.8426 72.7969C63.8369 72.7969 61.4004 75.2334 61.4004 78.2391C61.4004 81.2447 63.8369 83.6812 66.8426 83.6812Z" stroke="#8BC34A" stroke-width="1.5" stroke-miterlimit="10" stroke-linecap="round" stroke-linejoin="round"/>
</g>
<circle cx="54.5" cy="12.5" r="12.5" fill="#8BC34A"/>
<path d="M50.528 18V16.32L54.848 12.24C55.1893 11.9307 55.44 11.6533 55.6 11.408C55.76 11.1627 55.8667 10.9387 55.92 10.736C55.984 10.5333 56.016 10.3467 56.016 10.176C56.016 9.728 55.8613 9.38667 55.552 9.152C55.2533 8.90667 54.8107 8.784 54.224 8.784C53.7547 8.784 53.3173 8.87467 52.912 9.056C52.5173 9.23733 52.1813 9.52 51.904 9.904L50.016 8.688C50.4427 8.048 51.04 7.54133 51.808 7.168C52.576 6.79467 53.4613 6.608 54.464 6.608C55.296 6.608 56.0213 6.74667 56.64 7.024C57.2693 7.29067 57.7547 7.66933 58.096 8.16C58.448 8.65067 58.624 9.23733 58.624 9.92C58.624 10.2827 58.576 10.6453 58.48 11.008C58.3947 11.36 58.2133 11.7333 57.936 12.128C57.6693 12.5227 57.2747 12.9653 56.752 13.456L53.168 16.832L52.672 15.888H58.992V18H50.528Z" fill="white"/>
<defs>
<filter id="filter0_d_222_3880" x="0" y="13" width="108" height="108" filterUnits="userSpaceOnUse" color-interpolation-filters="sRGB">
<feFlood flood-opacity="0" result="BackgroundImageFix"/>
<feColorMatrix in="SourceAlpha" type="matrix" values="0 0 0 0 0 0 0 0 0 0 0 0 0 0 0 0 0 0 127 0" result="hardAlpha"/>
<feOffset dy="4"/>
<feGaussianBlur stdDeviation="2"/>
<feComposite in2="hardAlpha" operator="out"/>
<feColorMatrix type="matrix" values="0 0 0 0 0 0 0 0 0 0 0 0 0 0 0 0 0 0 0.1 0"/>
<feBlend mode="normal" in2="BackgroundImageFix" result="effect1_dropShadow_222_3880"/>
<feBlend mode="normal" in="SourceGraphic" in2="effect1_dropShadow_222_3880" result="shape"/>
</filter>
<clipPath id="clip0_222_3880">
<rect width="45" height="45" fill="white" transform="translate(32 40)"/>
</clipPath>
</defs>
</svg>
