<svg width="108" height="121" viewBox="0 0 108 121" fill="none" xmlns="http://www.w3.org/2000/svg">
<g filter="url(#filter0_d_1_61)">
<circle cx="54" cy="63" r="50" fill="white"/>
<circle cx="54" cy="63" r="49.75" stroke="#8BC34A" stroke-width="0.5"/>
</g>
<g clip-path="url(#clip0_1_61)">
<path d="M73.4844 50.8984H69.2656C68.9859 50.8984 68.7176 51.0096 68.5198 51.2073C68.3221 51.4051 68.2109 51.6734 68.2109 51.9531C68.2109 52.2328 68.3221 52.5011 68.5198 52.6989C68.7176 52.8967 68.9859 53.0078 69.2656 53.0078H73.4844C73.764 53.0081 74.0321 53.1193 74.2298 53.3171C74.4275 53.5148 74.5388 53.7829 74.5391 54.0625V76.5625C74.5388 76.8421 74.4275 77.1102 74.2298 77.3079C74.0321 77.5057 73.764 77.6169 73.4844 77.6172H35.5156C35.236 77.6169 34.9679 77.5057 34.7702 77.3079C34.5725 77.1102 34.4612 76.8421 34.4609 76.5625V54.0625C34.4612 53.7829 34.5725 53.5148 34.7702 53.3171C34.9679 53.1193 35.236 53.0081 35.5156 53.0078H39.7344C40.0141 53.0078 40.2824 52.8967 40.4802 52.6989C40.6779 52.5011 40.7891 52.2328 40.7891 51.9531C40.7891 51.6734 40.6779 51.4051 40.4802 51.2073C40.2824 51.0096 40.0141 50.8984 39.7344 50.8984H35.5156C34.6767 50.8994 33.8725 51.233 33.2793 51.8262C32.6861 52.4194 32.3525 53.2236 32.3516 54.0625V76.5625C32.3525 77.4014 32.6861 78.2056 33.2793 78.7988C33.8725 79.392 34.6767 79.7256 35.5156 79.7266H46.4141V82.5391H42.5469C42.2672 82.5391 41.9989 82.6502 41.8011 82.848C41.6033 83.0458 41.4922 83.314 41.4922 83.5938C41.4922 83.8735 41.6033 84.1417 41.8011 84.3395C41.9989 84.5373 42.2672 84.6484 42.5469 84.6484H66.4531C66.7328 84.6484 67.0011 84.5373 67.1989 84.3395C67.3967 84.1417 67.5078 83.8735 67.5078 83.5938C67.5078 83.314 67.3967 83.0458 67.1989 82.848C67.0011 82.6502 66.7328 82.5391 66.4531 82.5391H62.5859V79.7266H73.4844C74.3233 79.7256 75.1275 79.392 75.7207 78.7988C76.3139 78.2056 76.6475 77.4014 76.6484 76.5625V54.0625C76.6475 53.2236 76.3139 52.4194 75.7207 51.8262C75.1275 51.233 74.3233 50.8994 73.4844 50.8984ZM60.4766 82.5391H48.5234V79.7266H60.4766V82.5391Z" fill="#8BC34A"/>
<path d="M40.5481 70.0024L41.9543 72.8149C42.0322 72.9704 42.1474 73.1043 42.2894 73.2045C42.4315 73.3048 42.5962 73.3684 42.7688 73.3896C42.9414 73.4109 43.1166 73.3892 43.2788 73.3264C43.441 73.2637 43.5851 73.1618 43.6984 73.0299L47.9172 68.108C48.099 67.8956 48.1891 67.6197 48.1677 67.341C48.1462 67.0622 48.0149 66.8033 47.8027 66.6213C47.5904 66.4393 47.3146 66.349 47.0358 66.3702C46.757 66.3915 46.4981 66.5226 46.3159 66.7347L43.1309 70.4508L42.435 69.059C42.3096 68.8092 42.0902 68.6195 41.8251 68.5313C41.5599 68.4431 41.2705 68.4638 41.0206 68.5888C40.7706 68.7138 40.5805 68.9328 40.4919 69.1979C40.4033 69.4629 40.4235 69.7523 40.5481 70.0024Z" fill="#8BC34A"/>
<path d="M47.4688 72.3438C47.4688 72.6235 47.5799 72.8917 47.7777 73.0895C47.9755 73.2873 48.2437 73.3984 48.5234 73.3984H67.5078C67.7875 73.3984 68.0558 73.2873 68.2536 73.0895C68.4514 72.8917 68.5625 72.6235 68.5625 72.3438C68.5625 72.064 68.4514 71.7958 68.2536 71.598C68.0558 71.4002 67.7875 71.2891 67.5078 71.2891H48.5234C48.2437 71.2891 47.9755 71.4002 47.7777 71.598C47.5799 71.7958 47.4688 72.064 47.4688 72.3438Z" fill="#8BC34A"/>
<path d="M62.9375 40.3516H46.0625C45.2236 40.3525 44.4194 40.6861 43.8262 41.2793C43.233 41.8725 42.8994 42.6767 42.8984 43.5156V60.3906C42.8994 61.2295 43.233 62.0338 43.8262 62.6269C44.4194 63.2201 45.2236 63.5538 46.0625 63.5547H62.9375C63.7764 63.5538 64.5806 63.2201 65.1738 62.6269C65.767 62.0338 66.1006 61.2295 66.1016 60.3906V43.5156C66.1006 42.6767 65.767 41.8725 65.1738 41.2793C64.5806 40.6861 63.7764 40.3525 62.9375 40.3516ZM60.6764 58.1638H48.324C48.0442 58.1638 47.776 58.0527 47.5782 57.8549C47.3804 57.6571 47.2693 57.3889 47.2693 57.1091C47.2693 56.8294 47.3804 56.5612 47.5782 56.3634C47.776 56.1656 48.0442 56.0545 48.324 56.0545H60.6764C60.9561 56.0545 61.2244 56.1656 61.4222 56.3634C61.6199 56.5612 61.7311 56.8294 61.7311 57.1091C61.7311 57.3889 61.6199 57.6571 61.4222 57.8549C61.2244 58.0527 60.9561 58.1638 60.6764 58.1638ZM60.6764 53.0078H48.324C48.0442 53.0078 47.776 52.8967 47.5782 52.6989C47.3804 52.5011 47.2693 52.2328 47.2693 51.9531C47.2693 51.6734 47.3804 51.4051 47.5782 51.2073C47.776 51.0096 48.0442 50.8984 48.324 50.8984H60.6764C60.9561 50.8984 61.2244 51.0096 61.4222 51.2073C61.6199 51.4051 61.7311 51.6734 61.7311 51.9531C61.7311 52.2328 61.6199 52.5011 61.4222 52.6989C61.2244 52.8967 60.9561 53.0078 60.6764 53.0078ZM60.6764 47.8518H48.324C48.0442 47.8518 47.776 47.7407 47.5782 47.5429C47.3804 47.3451 47.2693 47.0768 47.2693 46.7971C47.2693 46.5174 47.3804 46.2491 47.5782 46.0513C47.776 45.8535 48.0442 45.7424 48.324 45.7424H60.6764C60.9561 45.7424 61.2244 45.8535 61.4222 46.0513C61.6199 46.2491 61.7311 46.5174 61.7311 46.7971C61.7311 47.0768 61.6199 47.3451 61.4222 47.5429C61.2244 47.7407 60.9561 47.8518 60.6764 47.8518Z" fill="#8BC34A"/>
</g>
<circle cx="54.5" cy="12.5" r="12.5" fill="#8BC34A"/>
<path d="M53.352 18V7.76L54.472 8.88H51.112V6.8H55.944V18H53.352Z" fill="white"/>
<defs>
<filter id="filter0_d_1_61" x="0" y="13" width="108" height="108" filterUnits="userSpaceOnUse" color-interpolation-filters="sRGB">
<feFlood flood-opacity="0" result="BackgroundImageFix"/>
<feColorMatrix in="SourceAlpha" type="matrix" values="0 0 0 0 0 0 0 0 0 0 0 0 0 0 0 0 0 0 127 0" result="hardAlpha"/>
<feOffset dy="4"/>
<feGaussianBlur stdDeviation="2"/>
<feComposite in2="hardAlpha" operator="out"/>
<feColorMatrix type="matrix" values="0 0 0 0 0 0 0 0 0 0 0 0 0 0 0 0 0 0 0.1 0"/>
<feBlend mode="normal" in2="BackgroundImageFix" result="effect1_dropShadow_1_61"/>
<feBlend mode="normal" in="SourceGraphic" in2="effect1_dropShadow_1_61" result="shape"/>
</filter>
<clipPath id="clip0_1_61">
<rect width="45" height="45" fill="white" transform="translate(32 40)"/>
</clipPath>
</defs>
</svg>
