<svg width="100" height="25" viewBox="0 0 100 25" fill="none" xmlns="http://www.w3.org/2000/svg">
<path d="M37.8477 10.4362C37.5902 12.368 36.0453 12.368 34.6292 12.368H33.8567L34.5004 8.63315C34.5004 8.37557 34.7579 8.24679 35.0154 8.24679H35.4016C36.4315 8.24679 37.3327 8.24679 37.8477 8.76194C37.8477 9.27709 37.8477 9.79224 37.8477 10.4362ZM37.204 5.28467H31.6681C31.2819 5.28467 31.0244 5.54224 30.8957 5.92861L28.7071 20.0953C28.7071 20.3528 28.8358 20.6104 29.222 20.6104H31.7969C32.1831 20.6104 32.4405 20.3528 32.5693 19.9665L33.213 16.1028C33.213 15.7165 33.5992 15.4589 33.9854 15.4589H35.7878C39.3926 15.4589 41.4524 13.6559 42.0961 10.1786C42.3536 8.63315 42.0961 7.47406 41.4524 6.57255C40.4225 5.79982 39.0063 5.28467 37.204 5.28467Z" fill="#545151"/>
<path d="M49.9518 15.5802C49.6943 17.1257 48.5356 18.156 46.9907 18.156C46.2183 18.156 45.5746 17.8984 45.1884 17.3833C44.8021 16.8681 44.6734 16.2242 44.8021 15.5802C45.0596 14.0348 46.2183 13.0045 47.7632 13.0045C48.5356 13.0045 49.1793 13.262 49.5655 13.7772C49.823 14.1636 50.0805 14.8075 49.9518 15.5802ZM53.5565 10.4287H50.9817C50.7242 10.4287 50.5955 10.5575 50.4667 10.8151L50.338 11.5878L50.2093 11.3302C49.6943 10.5575 48.4069 10.1711 47.1195 10.1711C44.1584 10.1711 41.7124 12.3605 41.1974 15.4514C40.9399 16.9969 41.3261 18.4136 42.2273 19.4439C42.9997 20.3454 44.1584 20.7317 45.5746 20.7317C47.8919 20.7317 49.1793 19.1863 49.1793 19.1863L49.0506 19.959C49.0506 20.2166 49.1793 20.4742 49.5655 20.4742H51.8829C52.2691 20.4742 52.5266 20.2166 52.6553 19.8302L54.0715 10.8151C54.0715 10.6863 53.9427 10.4287 53.5565 10.4287Z" fill="#545151"/>
<path d="M67.5898 10.4329H64.8862C64.6287 10.4329 64.3712 10.5616 64.2425 10.8192L60.6378 16.2283L59.0929 11.0768C58.9641 10.6904 58.7066 10.5616 58.3204 10.5616H55.7456C55.4881 10.5616 55.2306 10.8192 55.3594 11.2056L58.3204 19.7056L55.6168 23.5692C55.3594 23.8268 55.6169 24.3419 56.0031 24.3419H58.7067C58.9641 24.3419 59.2216 24.2132 59.3504 23.9556L68.1047 11.2056C68.2335 10.8192 67.976 10.4329 67.5898 10.4329Z" fill="#545151"/>
<path d="M76.9871 10.4362C76.7296 12.368 75.1847 12.368 73.7686 12.368H72.9961L73.6398 8.63315C73.6398 8.37557 73.8974 8.24679 74.1548 8.24679H74.541C75.571 8.24679 76.4721 8.24679 76.9871 8.76194C77.1159 9.27709 77.1159 9.79224 76.9871 10.4362ZM76.3434 5.28467H70.8076C70.4213 5.28467 70.1638 5.54224 70.0351 5.92861L67.8465 20.0953C67.8465 20.3528 67.9753 20.6104 68.3615 20.6104H71.1938C71.4513 20.6104 71.7087 20.4816 71.7087 20.0953L72.3524 16.1028C72.3524 15.7165 72.7387 15.4589 73.1249 15.4589H74.9272C78.532 15.4589 80.5919 13.6559 81.2356 10.1786C81.4931 8.63315 81.2356 7.47406 80.5919 6.57255C79.6907 5.79982 78.2745 5.28467 76.3434 5.28467Z" fill="#545151"/>
<path d="M89.2172 15.5802C88.9597 17.1257 87.801 18.156 86.2561 18.156C85.4837 18.156 84.84 17.8984 84.4538 17.3833C84.0676 16.8681 83.9388 16.2242 84.0675 15.5802C84.325 14.0348 85.4837 13.0045 87.0286 13.0045C87.801 13.0045 88.4447 13.262 88.831 13.7772C89.0884 14.1636 89.3459 14.8075 89.2172 15.5802ZM92.8219 10.4287H90.2471C89.9896 10.4287 89.8609 10.5575 89.7321 10.8151L89.6034 11.5878L89.4747 11.3302C88.9597 10.5575 87.6723 10.1711 86.3849 10.1711C83.4238 10.1711 80.9778 12.3605 80.4628 15.4514C80.2053 16.9969 80.5915 18.4136 81.4927 19.4439C82.2652 20.3454 83.4238 20.7317 84.84 20.7317C87.1573 20.7317 88.4447 19.1863 88.4447 19.1863L88.316 19.959C88.316 20.2166 88.4447 20.4742 88.831 20.4742H91.1483C91.5345 20.4742 91.792 20.2166 91.9207 19.8302L93.3369 10.8151C93.3369 10.6863 93.0794 10.4287 92.8219 10.4287Z" fill="#545151"/>
<path d="M95.9098 5.67103L93.5924 20.0953C93.5924 20.3528 93.7212 20.6104 94.1074 20.6104H96.4248C96.811 20.6104 97.0685 20.3528 97.1972 19.9665L99.3858 5.79982C99.3858 5.54225 99.257 5.28467 98.8708 5.28467H96.296C96.1673 5.28467 96.0385 5.54224 95.9098 5.67103Z" fill="#545151"/>
<path d="M5.79636 23.3113L6.18257 20.6068H5.28138H0.775452L3.86525 0.902223C3.86525 0.902223 3.86523 0.773438 3.99397 0.773438H4.12272H11.7184C14.1645 0.773438 15.9669 1.28859 16.8681 2.31889C17.2543 2.83404 17.5118 3.3492 17.6405 3.86435C17.7693 4.50829 17.7693 5.15222 17.6405 6.05374V6.56889L18.0267 6.82647C18.413 6.95525 18.6704 7.21283 18.9279 7.4704C19.3142 7.85677 19.5716 8.37192 19.5716 9.01586C19.7004 9.6598 19.7004 10.4325 19.4429 11.334C19.1854 12.3643 18.9279 13.1371 18.5417 13.9098C18.1555 14.5537 17.6405 15.0689 17.1255 15.584C16.6106 15.9704 15.8381 16.228 15.1944 16.4855C14.422 16.6143 13.6495 16.7431 12.7484 16.7431H12.1047C11.7184 16.7431 11.3322 16.8719 10.946 17.1295C10.6885 17.3871 10.431 17.7734 10.3023 18.1598V18.4174L9.52984 23.1825V23.3113V23.4401C9.52984 23.4401 9.52983 23.4401 9.40109 23.4401H5.79636V23.3113Z" fill="#545151"/>
<path d="M18.5367 6.05029C18.5367 6.17908 18.5367 6.30787 18.4079 6.43666C17.378 11.5882 14.0308 13.2624 9.65357 13.2624H7.46496C6.95 13.2624 6.43505 13.6488 6.43505 14.1639L5.27637 21.376L5.01889 23.4366C5.01889 23.823 5.27636 24.0806 5.53385 24.0806H9.52482C10.0398 24.0806 10.426 23.6942 10.426 23.3079V23.0503L11.1985 18.4139V18.1563C11.3272 17.6412 11.7134 17.3836 12.0996 17.3836H12.7433C16.6056 17.3836 19.5666 15.8382 20.3391 11.3306C20.7253 9.39878 20.4678 7.85333 19.5666 6.82302C19.3091 6.56545 18.9229 6.30787 18.5367 6.05029Z" fill="#545151"/>
<path d="M17.5097 5.67103C17.3809 5.67103 17.2522 5.54224 16.9947 5.54224C16.866 5.54224 16.6085 5.41345 16.4797 5.41345C15.836 5.28467 15.1923 5.28467 14.5486 5.28467H8.62655C8.49781 5.28467 8.36906 5.28467 8.24032 5.41345C7.98284 5.54224 7.72537 5.79982 7.72537 6.05739L6.43796 14.0422V14.2998C6.5667 13.7847 6.95291 13.3983 7.46787 13.3983H9.65648C14.0337 13.3983 17.3809 11.5953 18.4108 6.57255C18.4108 6.44376 18.4109 6.31497 18.5396 6.18618C18.2821 6.0574 18.0246 5.92861 17.7671 5.79982C17.6384 5.67103 17.5097 5.67103 17.5097 5.67103Z" fill="#A0A0A0"/>
<path d="M7.72445 6.05302C7.72445 5.79545 7.98193 5.53787 8.23941 5.40908C8.36815 5.40908 8.4969 5.2803 8.62564 5.2803H14.5477C15.1914 5.2803 15.9639 5.2803 16.4788 5.40908C16.6076 5.40908 16.8651 5.40909 16.9938 5.53787C17.1225 5.53787 17.2513 5.66666 17.5088 5.66666C17.6375 5.66666 17.6375 5.66666 17.7662 5.79545C18.0237 5.92424 18.2812 6.05303 18.5387 6.18181C18.7962 4.25 18.5387 2.96212 17.5088 1.80303C16.3501 0.515148 14.2902 0 11.7154 0H4.11971C3.60474 0 3.08977 0.386359 3.08977 0.901511L0 20.7348C0 21.1212 0.257482 21.5076 0.643705 21.5076H5.27837L6.43705 14.0379L7.72445 6.05302Z" fill="#545151"/>
</svg>
