<svg width="74" height="23" viewBox="0 0 74 23" fill="none" xmlns="http://www.w3.org/2000/svg">
<path d="M68.6539 0.328125H64.0265C62.6275 0.328125 61.5514 0.758561 60.9057 2.15748L52.0813 22.2804H58.323C58.323 22.2804 59.3991 19.5902 59.6143 18.9445C60.26 18.9445 66.394 18.9445 67.2549 18.9445C67.4702 19.6978 68.0082 22.1728 68.0082 22.1728H73.6042L68.6539 0.328125ZM61.3362 14.4249C61.8742 13.1336 63.7037 8.2912 63.7037 8.2912C63.7037 8.39881 64.2417 6.99989 64.457 6.24663L64.8874 8.18359C64.8874 8.18359 66.0712 13.4564 66.2864 14.5325H61.3362V14.4249Z" fill="#545151"/>
<path d="M52.5151 15.0653C52.5151 19.5849 48.4258 22.5979 42.0766 22.5979C39.3862 22.5979 36.8035 22.0599 35.4045 21.4142L36.2654 16.4642L37.0187 16.787C38.9557 17.6479 40.2471 17.9707 42.6146 17.9707C44.3365 17.9707 46.1659 17.3251 46.1659 15.8185C46.1659 14.8501 45.4126 14.2044 43.0451 13.1283C40.7852 12.0522 37.772 10.3305 37.772 7.20981C37.772 2.90545 41.9689 0 47.8877 0C50.1476 0 52.0847 0.430436 53.2684 0.968482L52.4075 5.70328L51.9771 5.27285C50.9009 4.84241 49.5019 4.41197 47.4573 4.41197C45.1974 4.51958 44.1212 5.48807 44.1212 6.34894C44.1212 7.31742 45.4126 8.07068 47.4573 9.03917C50.9009 10.6533 52.5151 12.4827 52.5151 15.0653Z" fill="#545151"/>
<path d="M0 0.539811L0.107614 0.109375H9.36244C10.6538 0.109375 11.6223 0.539811 11.9452 1.93873L13.9899 11.6236C11.9452 6.45831 7.21015 2.26156 0 0.539811Z" fill="#F9B50B"/>
<path d="M27.0133 0.326359L17.6509 22.171H11.3016L5.92093 3.87746C9.79504 6.35247 13.0235 10.2264 14.2072 12.9166L14.8529 15.1764L20.6641 0.21875H27.0133V0.326359Z" fill="#545151"/>
<path d="M29.4864 0.21875H35.4052L31.6387 22.171H25.7199L29.4864 0.21875Z" fill="#545151"/>
</svg>
